<svg width="169" height="59" viewBox="0 0 169 59" fill="none" xmlns="http://www.w3.org/2000/svg">
<path d="M27.28 36.3601C25.09 37.7101 22.6001 38.3901 19.8201 38.3901C16.4901 38.3901 13.9299 37.4001 12.1399 35.4201C10.3499 33.4401 9.44995 30.6401 9.44995 27.0201C9.44995 23.6301 9.91985 20.6201 10.8499 17.9901C11.7799 15.3601 13.1199 13.2001 14.8599 11.5001C17.6399 8.76009 21.26 7.39011 25.7 7.39011C28.17 7.39011 30.27 8.04009 31.98 9.34009C33.7 10.6401 34.86 12.4101 35.47 14.6501L44.0801 12.4201C43.0101 8.34011 40.9298 5.2601 37.8398 3.2001C34.7498 1.1401 30.8 0.100098 25.98 0.100098C21.16 0.100098 16.46 1.21011 12.52 3.43011C8.57002 5.65012 5.50005 8.8301 3.30005 12.9801C1.10005 17.1501 0 21.8701 0 27.1501C0 30.8801 0.75 34.1401 2.25 36.9401C3.75 39.7401 5.94986 41.8901 8.85986 43.4001C11.7499 44.9101 15.19 45.6601 19.2 45.6601C23.95 45.6601 28.0801 44.6901 31.5601 42.7401C35.0501 40.7901 37.8898 37.8701 40.0898 33.9701L32.96 30.2901C31.37 32.9901 29.48 35.0201 27.29 36.3701" fill="#C4161C"/>
<path d="M49.0701 11.02L42.47 45.02H51.27L57.8999 11.02H49.0701Z" fill="#C4161C"/>
<path d="M59.6099 1.64014H50.78L49.5 8.15012H58.3201L59.6099 1.64014Z" fill="#C4161C"/>
<path d="M81.5999 10.3901C79.1299 10.3901 77.03 10.8601 75.3 11.7901C73.57 12.7201 71.9499 14.2401 70.4399 16.3301H70.3201C70.4401 15.9301 70.5599 15.3501 70.6699 14.5901C70.7699 13.8301 70.8599 13.0901 70.9399 12.3801C71.0099 11.6701 71.05 11.2201 71.05 11.0301H62.4099C62.3299 11.7401 62.2299 12.4601 62.1299 13.2001C62.0299 13.9301 61.9201 14.6701 61.8201 15.4001C61.7401 15.9901 61.64 16.5601 61.52 17.1301C61.41 17.7001 61.2999 18.2701 61.1899 18.8601L53.5601 58.3801H62.3599C62.7799 56.2001 63.1999 54.0201 63.6199 51.8401C64.0399 49.6601 64.4599 47.4901 64.8799 45.3401C65.1499 44.0201 65.37 42.8701 65.52 41.8801C65.68 40.9001 65.7999 40.0801 65.8799 39.4301H65.9399C66.6099 41.4001 67.7599 42.9301 69.3999 44.0201C71.0299 45.1101 73.16 45.6501 75.78 45.6501C79.43 45.6501 82.43 44.6901 84.78 42.7701C87.14 40.8501 88.96 37.8801 90.26 33.8601C91.56 29.8401 92.21 25.7201 92.21 21.5101C92.21 18.0501 91.2799 15.3401 89.4099 13.3601C87.5399 11.3801 84.9499 10.3901 81.6199 10.3901M82.6399 26.9801C82.4599 28.3601 82.1999 29.7301 81.8499 31.1001C81.4999 32.4601 81.0798 33.7101 80.5898 34.8501C80.0998 35.9901 79.5399 36.9001 78.9099 37.5701C77.6899 38.9101 76.0099 39.5801 73.8499 39.5801C71.8599 39.5801 70.31 38.9501 69.2 37.6801C68.09 36.4101 67.53 34.6601 67.53 32.4201C67.53 32.0001 67.5498 31.5501 67.5898 31.0501C67.6298 30.5601 67.7 30.0201 67.78 29.4501C67.86 28.8701 67.9601 28.2601 68.0601 27.6101C68.7701 23.9001 69.92 21.1301 71.5 19.2801C73.08 17.4401 75.1901 16.5201 77.8301 16.5201C79.5901 16.5201 80.8699 17.0801 81.6799 18.2001C82.4899 19.3201 82.8899 20.9901 82.8899 23.2101C82.8899 24.3401 82.7999 25.6001 82.6199 26.9801" fill="#C4161C"/>
<path d="M160.2 18.73H166.66L168.08 11.03H161.73L163.24 3.05005H154.69L153.09 10.7701C152.04 10.5401 151.08 10.41 150.25 10.41C148.32 10.41 146.62 10.97 145.13 12.09C143.64 13.21 142.13 15.17 140.6 17.98H140.48L140.73 16.44L141.42 11.04H133C132.92 11.75 132.82 12.4701 132.7 13.1801C132.58 13.8901 132.46 14.59 132.34 15.29C132.26 15.92 132.16 16.54 132.04 17.14C131.93 17.75 131.8 18.3501 131.68 18.9601L130.59 24.58L126.6 45.32H135.41L138.62 28.89C139.12 26.38 139.81 24.3 140.69 22.65C141.57 21.01 142.65 19.78 143.94 18.97C145.23 18.16 146.73 17.76 148.45 17.76C149.29 17.76 150.34 17.89 151.57 18.14L148.58 33.53C148.25 35.27 148.08 36.9101 148.08 38.4601C148.08 40.7201 148.79 42.47 150.22 43.69C151.64 44.92 153.65 45.53 156.25 45.53C158.41 45.53 160.34 45.28 162.03 44.78L163.04 39.06C161.49 39.33 160.36 39.47 159.65 39.47C158.81 39.47 158.15 39.23 157.66 38.76C157.17 38.29 156.92 37.57 156.92 36.61C156.92 35.96 157.03 35.03 157.27 33.81L160.2 18.7401V18.73Z" fill="#C4161C"/>
<path d="M122.61 39.6099C122.02 39.3599 121.73 38.8099 121.73 37.9499C121.73 37.4499 121.81 36.6899 121.98 35.6899L124.21 24.5999C124.71 22.0899 124.96 20.4399 124.96 19.6699C124.96 16.5499 123.95 14.2199 121.93 12.6899C119.91 11.1599 116.73 10.3999 112.39 10.3999C108.05 10.3999 104.92 11.1899 102.42 12.7599C99.9199 14.3299 98.3099 16.6199 97.5999 19.6399L105.86 20.6099C106.22 19.1599 106.88 18.0599 107.84 17.2899C108.8 16.5299 110.27 16.1399 112.24 16.1399C113.58 16.1399 114.58 16.4799 115.24 17.1499C115.9 17.8199 116.23 18.8299 116.23 20.1699C116.23 20.9199 116.01 22.2999 115.57 24.2899L109.57 24.3799C103.58 24.4899 99.2501 25.5299 96.5801 27.5099C93.9101 29.4899 92.5701 32.4199 92.5701 36.2899C92.5701 39.0399 93.4399 41.2799 95.1899 43.0299C96.9399 44.7799 99.28 45.6499 102.21 45.6499C104.68 45.6499 106.78 45.1399 108.49 44.1299C110.21 43.1099 111.95 41.2399 113.71 38.5199H113.9C113.86 38.7899 113.82 39.0999 113.79 39.4299C113.76 39.7699 113.74 40.1299 113.74 40.5299C113.74 41.9699 114.31 43.1399 115.44 44.0199C116.57 44.8999 118.18 45.3399 120.28 45.3399C120.69 45.3399 121.08 45.3099 121.49 45.2999H121.44L124.29 45.3099L125.37 39.9399C124.96 39.9799 124.55 39.9999 124.21 39.9999C123.73 39.9999 123.19 39.8699 122.61 39.6199M113.91 32.1099C113.62 33.2599 113.2 34.3099 112.67 35.2399C112.14 36.1699 111.5 36.9599 110.77 37.6099C109.39 38.8699 107.86 39.4999 106.18 39.4999C104.78 39.4999 103.66 39.0899 102.83 38.2599C102 37.4299 101.59 36.2899 101.59 34.8199C101.59 33.9599 101.77 33.1899 102.12 32.4999C102.48 31.8099 102.99 31.2299 103.66 30.7699C104.35 30.2899 105.19 29.9199 106.17 29.6599C107.15 29.3999 108.26 29.2599 109.5 29.2399H114.59L113.9 32.1299L113.91 32.1099Z" fill="#C4161C"/>
</svg>
